<?xml version="1.0" encoding="UTF-8"?>
<svg width="26px" height="26px" viewBox="0 0 26 26" version="1.1" xmlns="http://www.w3.org/2000/svg" xmlns:xlink="http://www.w3.org/1999/xlink">
    <title>GitHub</title>
    <desc>GitHub Logo</desc>
    <g id="Images" stroke="none" stroke-width="1" fill="none" fill-rule="evenodd">
        <g id="Artboard" transform="translate(-106.000000, -63.000000)" fill="#161514">
            <g id="GitHub-Mark" transform="translate(0.000000, 20.000000)">
                <path d="M119.269906,43.3405367 C112.240697,43.3405367 106.540113,49.040339 106.540113,56.0718927 C106.540113,61.6966667 110.18758,66.4679944 115.246516,68.1514407 C115.883475,68.2686723 116.115593,67.8755556 116.115593,67.5379284 C116.115593,67.2362524 116.104652,66.4351695 116.098399,65.3730508 C112.557222,66.1420904 111.810066,63.6661582 111.810066,63.6661582 C111.230942,62.1952919 110.396252,61.8037382 110.396252,61.8037382 C109.240348,61.0143785 110.483785,61.0300094 110.483785,61.0300094 C111.76161,61.119887 112.433738,62.3422222 112.433738,62.3422222 C113.569322,64.2874859 115.413766,63.7255556 116.13904,63.3996516 C116.254708,62.577467 116.583738,62.0163183 116.947156,61.6982298 C114.120311,61.3770151 111.148098,60.2844162 111.148098,55.4060169 C111.148098,54.0164313 111.644379,52.8792844 112.458748,51.989887 C112.327448,51.6678908 111.890565,50.3728719 112.583795,48.6206497 C112.583795,48.6206497 113.652166,48.2783333 116.084331,49.9258286 C117.099557,49.6429096 118.18903,49.5022316 119.271469,49.4967608 C120.353126,49.5022316 121.441817,49.6429096 122.458606,49.9258286 C124.889209,48.2783333 125.956017,48.6206497 125.956017,48.6206497 C126.65081,50.3728719 126.213927,51.6678908 126.083409,51.989887 C126.899341,52.8792844 127.391714,54.0164313 127.391714,55.4060169 C127.391714,60.2969209 124.414812,61.3731073 121.579369,61.6880697 C122.035791,62.0811864 122.442976,62.8580414 122.442976,64.0459887 C122.442976,65.7474105 122.427345,67.1205838 122.427345,67.5379284 C122.427345,67.8786817 122.657119,68.2749247 123.302674,68.1506591 C128.357702,66.4633051 132.002043,61.6951036 132.002043,56.0718927 C132.002043,49.040339 126.30146,43.3405367 119.269906,43.3405367" id="Fill-4"></path>
            </g>
        </g>
    </g>
</svg>